<svg version="1.1" id="Layer_1" xmlns="http://www.w3.org/2000/svg" xmlns:xlink="http://www.w3.org/1999/xlink" x="0px" y="0px"
	 width="100%" viewBox="0 0 410 229" enable-background="new 0 0 410 229" xml:space="preserve">
<path fill="#010101" opacity="1.000000" stroke="none" 
	d="
M404.000000,230.000000 
	C269.666718,230.000000 135.333420,230.000000 1.000090,230.000000 
	C1.000060,153.666733 1.000060,77.333458 1.000030,1.000141 
	C137.666565,1.000094 274.333130,1.000094 410.999756,1.000047 
	C410.999847,77.333206 410.999847,153.666412 410.999939,229.999817 
	C409.666626,230.000000 408.333221,230.000000 406.183655,229.661469 
	C406.656830,221.404572 407.946228,213.486191 409.368500,204.751663 
	C405.988770,204.751663 403.211548,204.751663 400.434296,204.751663 
	C400.232025,205.225479 400.029785,205.699310 399.827515,206.173126 
	C402.123688,208.195877 404.419861,210.218628 407.506775,212.937958 
	C406.453094,218.064560 405.226532,224.032272 404.000000,230.000000 
z"/>
<path fill="#FDFDFD" opacity="1.000000" stroke="none" 
	d="
M404.333313,230.000000 
	C405.226532,224.032272 406.453094,218.064560 407.506775,212.937958 
	C404.419861,210.218628 402.123688,208.195877 399.827515,206.173126 
	C400.029785,205.699310 400.232025,205.225479 400.434296,204.751663 
	C403.211548,204.751663 405.988770,204.751663 409.368500,204.751663 
	C407.946228,213.486191 406.656830,221.404572 405.683716,229.661469 
	C405.555542,230.000000 405.111115,230.000000 404.333313,230.000000 
z"/>
</svg>