<svg version="1.1" id="Layer_1" xmlns="http://www.w3.org/2000/svg" xmlns:xlink="http://www.w3.org/1999/xlink" x="0px" y="0px"
	 width="100%" viewBox="0 0 410 410" enable-background="new 0 0 410 410" xml:space="preserve">
<path fill="#010100" opacity="1.000000" stroke="none" 
	d="
M403.095947,411.000000 
	C268.750519,411.000000 134.919556,411.000000 1.044295,411.000000 
	C1.044295,274.365295 1.044295,137.730576 1.044295,1.047924 
	C137.632278,1.047924 274.264587,1.047924 410.948425,1.047924 
	C410.948425,137.629868 410.948425,274.259766 410.948425,411.000000 
	C408.537262,411.000000 406.073822,411.000000 403.095947,411.000000 
M406.996094,308.904816 
	C406.068939,314.483276 405.141815,320.061737 404.214661,325.640198 
	C409.421417,318.201141 407.012573,309.446594 408.796021,300.794739 
	C405.961914,300.794739 403.218842,300.794739 400.475800,300.794739 
	C400.260071,301.337799 400.044342,301.880829 399.828613,302.423889 
	C402.212250,304.299500 404.595917,306.175110 406.996094,308.904816 
z"/>
<path fill="#FDFDFD" opacity="1.000000" stroke="none" 
	d="
M406.987854,308.477783 
	C404.595917,306.175110 402.212250,304.299500 399.828613,302.423889 
	C400.044342,301.880829 400.260071,301.337799 400.475800,300.794739 
	C403.218842,300.794739 405.961914,300.794739 408.796021,300.794739 
	C407.012573,309.446594 409.421417,318.201141 404.214661,325.640198 
	C405.141815,320.061737 406.068939,314.483276 406.987854,308.477783 
z"/>
</svg>