<svg xmlns="http://www.w3.org/2000/svg" width="1708" height="1708"><path d="m720.023 501.832 3.211-.01c2.241-.005 4.482-.007 6.723-.007 3.372-.002 6.745-.02 10.117-.04 42.386-.114 84.65 16.295 116.266 45.377 2.42 2.683 4.44 5.528 6.488 8.5 7.927 11.375 16.189 16.879 29.117 21.592C907.698 583.042 922.28 589.787 935 601l1.957 1.637c5.812 5.229 10.123 12.259 11.52 20.008.248 7.168-1.649 15.235-5.477 21.355-2.963 1.984-5.754 2.33-9.25 2.75-5.032.85-7.752 2.393-11.621 5.605-7.221 5.579-15.903 8.473-24.61 10.821-4.296 1.211-7.358 2.64-10.519 5.824-.554 4.43-.106 7.143 2 11 10.986-.196 20.568-5.819 30.234-10.559 32.396-15.855 64.228-24.342 99.6-30.233a834.707 834.707 0 0 0 11.94-2.068l2.315-.42c1.426-.26 2.852-.522 4.278-.789 7.238-1.315 14.196-2.057 21.258.256 3.398 2.594 4.036 4.858 4.754 8.997.885 4.974.885 4.974 3.621 9.129 14.408 8.104 30.203 8.279 46.307 9.289 14.754.939 29.012 1.984 42.634 8.171 3.315 1.33 6.503 2.051 9.996 2.79 9.547 2.093 18.405 6.14 27.332 10.021 17.142 7.504 17.142 7.504 35.477 7.916 18.119-2.784 33.828 2.214 48.621 12.871 12.303 9.222 23.23 20.146 34.008 31.067 9.698 10.869 9.698 10.869 22.625 15.562a51.913 51.913 0 0 0 7.188-4.125l2.086-1.364A582.72 582.72 0 0 0 1350 742l2.306-1.544c9.42-6.31 18.672-12.839 27.845-19.501 13.345-9.686 26.748-19.39 40.849-27.955l2.691-1.656c4.559-2.568 7.677-3.556 12.934-3.282 5.145.233 7.852-.802 11.738-4.167 2.26-2.615 3.429-5.287 4.672-8.489 7.317-18.248 25.332-35.858 43.09-43.804 15.638-6.381 34.824-8.9 51.047-2.993 8.139 4.002 14.25 10.374 19.828 17.391l2.3 2.867c11.922 15.06 23.946 31.329 27.934 50.426.822 2.905 1.973 4.889 3.641 7.394 7.329 11.222 10.405 27.13 9.125 40.313-7.305 27.016-28.62 48.191-50.879 63.695-9.843 6.869-16.492 13.623-22.726 23.97-4.639 7.645-10.186 13.969-16.395 20.335l-1.54 1.585c-5.923 6.077-11.97 11.94-18.46 17.415-.964.842-1.928 1.684-2.922 2.55-8.974 7.797-18.126 15.294-29.015 20.263-5.72 2.709-9.957 6.32-14.621 10.502-7.771 6.9-16.513 12.402-25.442 17.685.309 4.015 1.34 6.79 3.375 10.188 6.186 10.584 6.83 22.555 6.865 34.533.01 2.01.041 4.019.072 6.029.036 8.804-1.061 15.847-4.433 23.941-1.164 3.056-1.53 6.005-1.941 9.246l-.473 3.59c-1.09 9.85-1.546 19.732-1.93 29.63l-.118 3.023c-.16 4.15-.318 8.301-.467 12.452-1.098 30.4-1.098 30.4-6.59 43.63-2.624 7.214-4.077 14.767-5.778 22.242-1.37 5.873-2.993 11.68-4.582 17.496-.733 2.686-1.461 5.374-2.188 8.063l-.98 3.597-.832 3.34c-.264 1.013-.529 2.026-.8 3.07-.26 3.822.792 5.51 2.8 8.743l1.95 3.148c2.354 3.49 4.86 6.785 7.57 10.004 2.25 3.093 3.606 5.747 3.23 9.598-.75 2.437-.75 2.437-1.875 4.312-1.507 3.66-1.191 5.364.125 9.125 11.344 11.277 29.306 17.382 44 23l3.117 1.219c7.137 2.499 14.222 3.383 21.696 4.218 9.948 1.121 18.854 2.961 28.187 6.563l1.949.75c38.221 14.978 67.104 43.688 90.965 76.21A250.69 250.69 0 0 0 1631 1340c6.163 6.685 6.163 6.685 7 11-8.609 1.1-17.207 1.21-25.872 1.297l-4.752.058c-4.296.053-8.59.1-12.886.144l-8.197.09c-41.288.47-82.577.742-123.867.95l-9.022.047c-100.344.521-200.687.563-301.031.55-18.05-.003-36.101-.003-54.152-.002h-3.97a4566357.546 4566357.546 0 0 0-60.565.003h-2.046c-21.308 0-42.617 0-63.925-.003h-2.075l-33.3-.004a598458.595 598458.595 0 0 0-165.403.004h-2.08a523600 523600 0 0 1-63.963.003h-2.043l-44.5-.002-17.918-.001h-3.955c-18-.001-36 0-54 .002-95.051.012-190.102.01-285.152-.566l-7.62-.046c-35.352-.208-70.703-.509-106.053-.966-2.33-.03-4.66-.058-6.991-.087-15.46-.191-30.913-.456-46.366-.941l-3.76-.113c-5.583-.19-11.029-.454-16.536-1.417 1.464-4.392 3.978-4.88 8-7-.497-4.555-2.158-6.698-5.188-10.063-7.352-8.641-12.258-17.84-12.078-29.289.38-3.785 1.41-5.14 4.266-7.648a677.899 677.899 0 0 1 6.875-5.316c4.042-3.203 5.822-5.453 7.063-10.496.475-6.182-2.001-10.908-5.438-15.876-7.5-11.667-6.808-27.67-4.25-40.812 2.508-10.146 6-16.455 14.75-22.5 4.043-2.308 8.173-4.442 12.348-6.5 5.934-2.924 5.934-2.924 10.652-7.5.915-2.746 1.239-4.852 1.465-7.71l.236-2.774c.157-1.92.31-3.839.461-5.758.747-8.646.747-8.646 2.838-12.758h4c1.827 3.151 2.302 5.625 2.492 9.246l.2 3.037c.122 2.099.236 4.198.343 6.297.29 4.262.544 7.59 2.492 11.428 3.439 2.77 7.012 4.017 11.16 5.43 14.387 5.263 22.242 11.666 28.938 25.546a183.656 183.656 0 0 1 4.32 10.274c1.372 2.265 2.586 2.849 5.055 3.742 7.694.135 13.086-3.28 19-8 11.139-10.944 17.873-26.768 18.5-42.25-.488-20.863-13.549-36.219-27.125-50.875-11.909-12.915-11.909-12.915-14.313-20.313-2.292-7.034-6.747-12.015-11.738-17.355-6.798-7.396-9.365-16.014-11.699-25.582-3.22-12.972-8.417-22.667-18.625-31.625 4.772-11.488 20.996-20.356 32-25l3.563-.875c19.565-6.403 34.579-32.306 45.48-48.373 5.733-8.424 11.8-16.495 18.707-24.002 10.707-11.73 12.483-21.439 12.848-37.086.038-1.37.078-2.74.118-4.11.104-3.58.199-7.158.29-10.738.148-5.75.307-11.498.473-17.247.055-2.002.105-4.005.154-6.007l.102-3.673.082-3.235C275 854 275 854 276 851h2c1.239 11.895 2.139 23.731 2.5 35.688.675 28.823.675 28.823 14.5 53.312 5.564 6.873 10.728 13.885 15.438 21.375l1.251 1.981c3.097 5.024 5.55 10.107 7.252 15.785 2.712 7.325 9.884 12.77 15.622 17.797 4.665 4.136 8.182 8.52 11.722 13.632 2.034 2.882 4.002 5.182 6.715 7.43h3c2.119-6.8 2.376-13.325 2.52-20.421.043-2.073.097-4.145.154-6.218.139-5.138.259-10.278.378-15.417.102-4.361.212-8.722.332-13.083.053-2.04.094-4.08.136-6.121l.101-3.743.076-3.298C360 947 360 947 362 944c3.2 3.2 2.285 12.42 2.465 16.773l.233 5.157.118 2.698c.728 16.491 1.666 32.932 3.184 49.372l2.875-1.5C374 1015 374 1015 376 1015l.824-1.734c1.191-2.295 2.561-4.362 3.988-6.516 8.098-13.51 9.802-29.598 11.895-44.914 3.37-24.359 13.997-42.82 27.478-63.083 3.328-5.048 6.565-10.154 9.815-15.253 4.803-7.52 9.627-15.025 14.5-22.5 11.663-17.896 23.123-35.922 34.5-54 11.646 1.398 23.063 2.958 34.395 6.035L517 814l2.12.616c5.825 1.541 10.35 1.266 16.192-.053l2.599-.562c14.763-3.362 32.011-7.923 43.089-19.001.147-1.543.228-3.091.281-4.64l.112-2.994.107-3.26.123-3.33c.13-3.53.254-7.06.377-10.588.123-3.52.247-7.038.377-10.556.08-2.194.158-4.387.23-6.581l.112-3.023.092-2.656c.178-2.233.574-4.222 1.189-6.372h2a4383.622 4383.622 0 0 1 4 46 6397.16 6397.16 0 0 0 9.442-9.387c1.067-1.062 2.135-2.123 3.203-3.183 6.007-5.96 11.907-11.946 17.355-18.43l1.605-1.872c11.176-13.097 22.67-27.9 26.395-45.128l.45-2.016c1.202-11.283-8.354-21.54-14.95-29.859-13.062-15.289-27.982-24.535-45.551-33.795-1.844-.972-3.687-1.947-5.53-2.922-2.43-1.286-4.867-2.56-7.307-3.828-24.348-12.85-24.348-12.85-28.987-24.83-2.314-8.1-2.276-17.267 1.875-24.75 9.373-12.345 24.626-20.209 39-25a86.68 86.68 0 0 1 4.063-.395c12.986-1.086 24.84-2.507 34.5-12.168 2.814-3.547 4.473-7.606 6.226-11.753 5.043-11.176 15.565-15.272 26.524-19.496l3.188-1.252c8.796-3.397 17.688-6.496 26.624-9.499l1.953-.66c1.849-.622 3.702-1.233 5.555-1.843l3.215-1.061c7.04-1.95 13.927-2.033 21.175-2.041ZM559 597c-2.244 1.775-2.244 1.775-2.012 4.094l.324 2.406.301 2.406c.296 2.143.296 2.143 1.387 4.094h2c.838-4.655 1.016-8.37 0-13h-2Zm-422.125 608.125-3.57 3.055-1.736 1.487a222.563 222.563 0 0 1-3.811 3.153c-7.126 5.796-11.09 12.056-12.445 21.243-.6 6.408-1.358 14.781 2.234 20.324L119 1256c5.596-1.27 9.243-3.233 13.688-6.813l1.681-1.29c5.623-4.42 9.601-8.657 10.631-15.897.25-4.546.234-9.074.188-13.625l-.002-3.68c-.035-7.403-.035-7.403-1.186-14.695-2.426 0-5.265 3.528-7.125 5.125ZM158 1202c-4.28 4.28-3.184 10.632-3.188 16.313l-.037 2.802c-.01 5.257.085 9.993 2.225 14.885 2.605 2.382 2.605 2.382 5.875 4.25 6.174 3.926 11.379 8.427 16.664 13.465 2.436 2.383 2.436 2.383 5.461 4.285 4.25-15.56 5.193-26.012-2.938-40.438-4.541-6.084-13.01-12.863-20.062-15.562h-4Zm36 57c-2.656 5.146-2.826 10.527-1.5 16.102.712 2.16.712 2.16 2.5 4.898 2.577 1.052 2.577 1.052 5 1 2.992-4.487 2.715-8.741 2-14-1.232-3.033-2.653-5.693-5-8h-3Zm31 17c-2.718 2.3-3.457 3.847-3.813 7.375-.302 3.725-.094 6.313 1.813 9.625 1.827 2.25 1.827 2.25 4.5 2.25s2.673 0 4.5-2.25c.633-6.121-.254-10.976-4-16l-3-1Z" fill="#B15D24"/><path d="m720.023 501.832 3.211-.01c2.241-.005 4.482-.007 6.723-.007 3.372-.002 6.745-.02 10.117-.04 42.386-.114 84.65 16.295 116.266 45.377 2.42 2.683 4.44 5.528 6.488 8.5 7.927 11.375 16.189 16.879 29.117 21.592C907.698 583.042 922.28 589.787 935 601l1.957 1.637c5.812 5.229 10.123 12.259 11.52 20.008.248 7.168-1.649 15.235-5.477 21.355-2.963 1.984-5.754 2.33-9.25 2.75-5.032.85-7.752 2.393-11.621 5.605-7.221 5.579-15.903 8.473-24.61 10.821-4.296 1.211-7.358 2.64-10.519 5.824-.554 4.43-.106 7.143 2 11 10.986-.196 20.568-5.819 30.234-10.559 32.396-15.855 64.228-24.342 99.6-30.233a834.707 834.707 0 0 0 11.94-2.068l2.315-.42c1.426-.26 2.852-.522 4.278-.789 7.238-1.315 14.196-2.057 21.258.256 3.398 2.594 4.036 4.858 4.754 8.997.885 4.974.885 4.974 3.621 9.129 14.408 8.104 30.203 8.279 46.307 9.289 14.754.939 29.012 1.984 42.634 8.171 3.315 1.33 6.503 2.051 9.996 2.79 9.547 2.093 18.405 6.14 27.332 10.021 17.142 7.504 17.142 7.504 35.477 7.916 18.119-2.784 33.828 2.214 48.621 12.871 12.303 9.222 23.23 20.146 34.008 31.067 9.698 10.869 9.698 10.869 22.625 15.562a51.913 51.913 0 0 0 7.188-4.125l2.086-1.364A582.72 582.72 0 0 0 1350 742l2.306-1.544c9.42-6.31 18.672-12.839 27.845-19.501 13.345-9.686 26.748-19.39 40.849-27.955l2.691-1.656c4.559-2.568 7.677-3.556 12.934-3.282 5.145.233 7.852-.802 11.738-4.167 2.26-2.615 3.429-5.287 4.672-8.489 7.317-18.248 25.332-35.858 43.09-43.804 15.638-6.381 34.824-8.9 51.047-2.993 8.139 4.002 14.25 10.374 19.828 17.391l2.3 2.867c11.922 15.06 23.946 31.329 27.934 50.426.822 2.905 1.973 4.889 3.641 7.394 7.329 11.222 10.405 27.13 9.125 40.313-7.305 27.016-28.62 48.191-50.879 63.695-9.843 6.869-16.492 13.623-22.726 23.97-4.639 7.645-10.186 13.969-16.395 20.335l-1.54 1.585c-5.923 6.077-11.97 11.94-18.46 17.415-.964.842-1.928 1.684-2.922 2.55-8.974 7.797-18.126 15.294-29.015 20.263-5.72 2.709-9.957 6.32-14.621 10.502-7.771 6.9-16.513 12.402-25.442 17.685.309 4.015 1.34 6.79 3.375 10.188 6.186 10.584 6.83 22.555 6.865 34.533.01 2.01.041 4.019.072 6.029.036 8.804-1.061 15.847-4.433 23.941-1.164 3.056-1.53 6.005-1.941 9.246l-.473 3.59c-1.09 9.85-1.546 19.732-1.93 29.63l-.118 3.023c-.16 4.15-.318 8.301-.467 12.452-1.098 30.4-1.098 30.4-6.59 43.63-2.624 7.214-4.077 14.767-5.778 22.242-1.37 5.873-2.993 11.68-4.582 17.496-.733 2.686-1.461 5.374-2.188 8.063l-.98 3.597-.832 3.34c-.264 1.013-.529 2.026-.8 3.07-.26 3.822.792 5.51 2.8 8.743l1.95 3.148c2.354 3.49 4.86 6.785 7.57 10.004 2.25 3.093 3.606 5.747 3.23 9.598-.75 2.437-.75 2.437-1.875 4.312-1.507 3.66-1.191 5.364.125 9.125 11.344 11.277 29.306 17.382 44 23l3.117 1.219c7.137 2.499 14.222 3.383 21.696 4.218 9.948 1.121 18.854 2.961 28.187 6.563l1.949.75c38.221 14.978 67.104 43.688 90.965 76.21A250.69 250.69 0 0 0 1631 1340c6.163 6.685 6.163 6.685 7 11-8.609 1.1-17.207 1.21-25.872 1.297l-4.752.058c-4.296.053-8.59.1-12.886.144l-8.197.09c-41.288.47-82.577.742-123.867.95l-9.022.047c-100.344.521-200.687.563-301.031.55-18.05-.003-36.101-.003-54.152-.002h-3.97a4566357.546 4566357.546 0 0 0-60.565.003h-2.046c-21.308 0-42.617 0-63.925-.003h-2.075l-33.3-.004a598458.595 598458.595 0 0 0-165.403.004h-2.08a523600 523600 0 0 1-63.963.003h-2.043l-44.5-.002-17.918-.001h-3.955c-18-.001-36 0-54 .002-95.051.012-190.102.01-285.152-.566l-7.62-.046c-35.352-.208-70.703-.509-106.053-.966-2.33-.03-4.66-.058-6.991-.087-15.46-.191-30.913-.456-46.366-.941l-3.76-.113c-5.583-.19-11.029-.454-16.536-1.417 1.464-4.392 3.978-4.88 8-7-.497-4.555-2.158-6.698-5.188-10.063-7.352-8.641-12.258-17.84-12.078-29.289.38-3.785 1.41-5.14 4.266-7.648a677.899 677.899 0 0 1 6.875-5.316c4.042-3.203 5.822-5.453 7.063-10.496.475-6.182-2.001-10.908-5.438-15.876-7.5-11.667-6.808-27.67-4.25-40.812 2.508-10.146 6-16.455 14.75-22.5 4.043-2.308 8.173-4.442 12.348-6.5 5.934-2.924 5.934-2.924 10.652-7.5.915-2.746 1.239-4.852 1.465-7.71l.236-2.774c.157-1.92.31-3.839.461-5.758.747-8.646.747-8.646 2.838-12.758h4c1.827 3.151 2.302 5.625 2.492 9.246l.2 3.037c.122 2.099.236 4.198.343 6.297.29 4.262.544 7.59 2.492 11.428 3.439 2.77 7.012 4.017 11.16 5.43 14.387 5.263 22.242 11.666 28.938 25.546a183.656 183.656 0 0 1 4.32 10.274c1.372 2.265 2.586 2.849 5.055 3.742 7.694.135 13.086-3.28 19-8 11.139-10.944 17.873-26.768 18.5-42.25-.488-20.863-13.549-36.219-27.125-50.875-11.909-12.915-11.909-12.915-14.313-20.313-2.292-7.034-6.747-12.015-11.738-17.355-6.798-7.396-9.365-16.014-11.699-25.582-3.22-12.972-8.417-22.667-18.625-31.625 4.772-11.488 20.996-20.356 32-25l3.563-.875c19.565-6.403 34.579-32.306 45.48-48.373 5.733-8.424 11.8-16.495 18.707-24.002 10.707-11.73 12.483-21.439 12.848-37.086.038-1.37.078-2.74.118-4.11.104-3.58.199-7.158.29-10.738.148-5.75.307-11.498.473-17.247.055-2.002.105-4.005.154-6.007l.102-3.673.082-3.235C275 854 275 854 276 851h2c1.239 11.895 2.139 23.731 2.5 35.688.675 28.823.675 28.823 14.5 53.312 5.564 6.873 10.728 13.885 15.438 21.375l1.251 1.981c3.097 5.024 5.55 10.107 7.252 15.785 2.712 7.325 9.884 12.77 15.622 17.797 4.665 4.136 8.182 8.52 11.722 13.632 2.034 2.882 4.002 5.182 6.715 7.43h3c2.119-6.8 2.376-13.325 2.52-20.421.043-2.073.097-4.145.154-6.218.139-5.138.259-10.278.378-15.417.102-4.361.212-8.722.332-13.083.053-2.04.094-4.08.136-6.121l.101-3.743.076-3.298C360 947 360 947 362 944c3.2 3.2 2.285 12.42 2.465 16.773l.233 5.157.118 2.698c.728 16.491 1.666 32.932 3.184 49.372l2.875-1.5C374 1015 374 1015 376 1015l.824-1.734c1.191-2.295 2.561-4.362 3.988-6.516 8.098-13.51 9.802-29.598 11.895-44.914 3.37-24.359 13.997-42.82 27.478-63.083 3.328-5.048 6.565-10.154 9.815-15.253 4.803-7.52 9.627-15.025 14.5-22.5 11.663-17.896 23.123-35.922 34.5-54 11.646 1.398 23.063 2.958 34.395 6.035L517 814l2.12.616c5.825 1.541 10.35 1.266 16.192-.053l2.599-.562c14.763-3.362 32.011-7.923 43.089-19.001.147-1.543.228-3.091.281-4.64l.112-2.994.107-3.26.123-3.33c.13-3.53.254-7.06.377-10.588.123-3.52.247-7.038.377-10.556.08-2.194.158-4.387.23-6.581l.112-3.023.092-2.656c.178-2.233.574-4.222 1.189-6.372h2a4383.622 4383.622 0 0 1 4 46 6397.16 6397.16 0 0 0 9.442-9.387c1.067-1.062 2.135-2.123 3.203-3.183 6.007-5.96 11.907-11.946 17.355-18.43l1.605-1.872c11.176-13.097 22.67-27.9 26.395-45.128l.45-2.016c1.202-11.283-8.354-21.54-14.95-29.859-13.062-15.289-27.982-24.535-45.551-33.795-1.844-.972-3.687-1.947-5.53-2.922-2.43-1.286-4.867-2.56-7.307-3.828-24.348-12.85-24.348-12.85-28.987-24.83-2.314-8.1-2.276-17.267 1.875-24.75 9.373-12.345 24.626-20.209 39-25a86.68 86.68 0 0 1 4.063-.395c12.986-1.086 24.84-2.507 34.5-12.168 2.814-3.547 4.473-7.606 6.226-11.753 5.043-11.176 15.565-15.272 26.524-19.496l3.188-1.252c8.796-3.397 17.688-6.496 26.624-9.499l1.953-.66c1.849-.622 3.702-1.233 5.555-1.843l3.215-1.061c7.04-1.95 13.927-2.033 21.175-2.041Zm-34.665 17.82a831.93 831.93 0 0 1-5.967 2.145c-6.993 2.507-13.896 5.171-20.72 8.112a88.62 88.62 0 0 1-5.86 2.14c-2.814.952-4.636 1.943-6.811 3.951v2h-2v2l-3 1c-.99 1.96-.99 1.96-1.625 4.313l-.727 2.363c-.586 2.1-1.134 4.205-1.648 6.324h-2c-1.582 1.484-1.582 1.484-3.125 3.375l-1.633 1.898c-1.437 1.643-1.437 1.643-1.242 3.727l-2.438.75c-2.735.96-5.155 2-7.75 3.25-6.964 3.133-14.126 3.927-21.687 4.375-11.64.919-21.474 4.615-30.125 12.625v2h-2v2l4 1c.962 3.237 1.129 6.164 1.133 9.535l.004 3.201-.012 3.327.012 3.337-.004 3.198-.004 2.922C570 617 570 617 569 620c9.617 6.385 19.796 11.615 30.09 16.811 21.722 11.057 38.187 24.94 51.61 45.24a165.318 165.318 0 0 0 3.394 4.855c5.24 8.01 5.06 16.858 3.906 26.094-1.529 7.19-4.582 13.59-8.047 20.04-1.099 1.896-1.099 1.896-.953 3.96l-3 1v4l-3 1c-1.821 2.175-1.821 2.175-3.625 4.875-8.499 11.972-18.21 22.568-28.375 33.125l-2.31 2.413c-8.866 9.223-17.534 17.888-28.295 24.872L578 810v2c-.807.26-1.614.52-2.445.79a215.733 215.733 0 0 0-7.735 2.796c-19.672 7.523-38.871 13.86-59.593 7.274-5.445-1.711-10.502-2.587-16.227-2.86v-2l-3.875-.188-2.18-.105L484 818c-2.37 2.954-2.37 2.954-2 7l-3 1c-2.87 3.69-4 5.244-4 10l-3 1c-2.87 3.69-4 5.244-4 10l-3 1c-1.68 1.944-1.68 1.944-3.188 4.313l-1.605 2.363c-1.514 2.48-1.514 2.48-1.207 6.324l-3 1c-1.984 2.25-3.545 4.807-5.188 7.313l-1.404 2.052-1.326 1.998-1.212 1.822c-1.158 2.08-1.158 2.08-.87 5.815l-3 1c-2.87 3.69-4 5.244-4 10l-3 1c-1.68 1.944-1.68 1.944-3.188 4.313l-1.605 2.363c-1.514 2.48-1.514 2.48-1.207 6.324l-3 1c-2.87 3.69-4 5.244-4 10l-3 1c-2.87 3.69-4 5.244-4 10l-3 1c-1.24 2.25-2.028 4.563-2.902 6.977a369.913 369.913 0 0 1-2.089 5.619c-2.836 7.827-4.116 15.606-5.161 23.814-4.12 31.997-4.12 31.997-11.93 45.84-1.073 1.716-1.073 1.716-.918 3.75l-3 1c-1.659 1.558-1.659 1.558-3.188 3.438l-1.605 1.87c-1.4 1.617-1.4 1.617-1.207 3.692l-2.688.875c-3.166 1-3.166 1-5.476 2.168-7.823 2.64-18.97 2.38-26.524-.918-4.362-2.646-6.775-6.112-9.472-10.371-4.375-6.548-10.006-12.326-16.027-17.379-7.254-6.198-11.009-12.237-13.739-21.336-4.446-12.578-15.074-23.8-23.543-33.883-1.506-2.12-2.115-3.613-2.531-6.156h-2l-1-3c-11.287 10.835-20.897 23.695-29.625 36.625-8.289 12.28-17.148 23.645-27.375 34.375l-2.04 2.164c-2.642 2.736-5.187 5.095-8.398 7.149L208 1017v2c-4.71 1.766-9.03 2.486-14 3l-1 3-2.168.262c-3.426.893-5.386 2.348-8.144 4.55l-2.676 2.083c-2.473 2.102-2.473 2.102-2.012 6.105 1.32 2.53 2.689 4.976 4.125 7.438 4.196 7.49 6.763 14.941 8.846 23.253 1.748 6.89 3.734 13.87 9.341 18.621 5.809 5.485 9.947 12.223 12.563 19.75 2.303 6.186 6.58 10.279 11.125 14.938 15.986 16.8 30.69 36.12 30.438 60.313l-.021 3.06c-.244 11.349-3.515 20.3-8.464 30.482-1.088 2.058-1.088 2.058-.953 4.145l-3 1a94.814 94.814 0 0 0-3.75 5.25c-3.35 4.782-6.392 7.612-11.25 10.75v2l-6 2-2.625 1.125c-6.178 1.602-13.22 1.716-19.375-.125l-1 7 3.688 1.375c4.567 2.316 6.363 5.132 8.414 9.742 1.523 4.89 1.802 9.787 1.898 14.883 2.343-2.672 2.343-2.672 3-6 6.206-2.546 11.792-2.802 18.25-1.188 4.509 3.587 6.337 7.647 7.75 13.188.555 5.993.297 11.998 0 18h-2l-1 4c-6.609 1.983-14.262 2.133-20.625-.5-4.973-5.235-5.752-11.523-6.375-18.5l-2.375 2.438c-3.669 3.58-5.413 3.738-10.438 3.812l-3.144.078c-3.511-.378-5.276-1.151-8.043-3.328-2.821-4.597-4.106-9.456-4.25-14.813-.238-3.221-.238-3.221-2.3-5.578a98.188 98.188 0 0 0-4.227-2.32c-2.42-1.403-3.956-2.925-5.848-4.976-5.408-5.68-11.935-9.9-18.375-14.313l-1 2-3 1a180.068 180.068 0 0 0-3.395 3.465c-2.719 2.6-5.785 4.757-8.812 6.984L134 1260v2c-.638.182-1.276.364-1.934.55l-2.504.763-2.496.738L125 1265c-1.099 3.297-.84 3.82 0 7 .43 7.004.064 13.291-2 20h-2c-1.302 1.362-1.302 1.362-2.625 3.125-3.307 4.02-7.116 6.924-11.375 9.875 1.295 8.922 5.27 14.491 10.945 21.352l1.868 2.273 1.707 1.977c2.052 3.325 2.584 6.595 3.48 10.398 17.79.982 35.575 1.286 53.386 1.5 2.416.028 4.832.059 7.248.09 35.56.453 71.119.74 106.68.95 2.582.014 5.163.03 7.745.046 94.879.572 189.758.562 284.638.55 17.906-.003 35.812-.003 53.719-.002h3.931a4606905.312 4606905.312 0 0 1 59.983.003h2.028c21.15 0 42.3 0 63.45-.003h2.062l33.1-.004a588092.063 588092.063 0 0 1 163.874.004h2.056c21.116.002 42.233.003 63.35.003h2.026a1121886.044 1121886.044 0 0 0 65.89-.003c17.826-.001 35.65 0 53.476.002 99.728.013 199.455-.05 299.182-.566l8.969-.046c51.407-.256 102.806-.735 154.207-1.524-2.298-3.467-4.596-6.87-7.172-10.137l-1.75-2.231-1.828-2.32c-3.888-4.957-7.739-9.915-11.375-15.062-9.923-13.82-21.56-25.7-34.875-36.25l-2.89-2.371c-20.022-16.043-43.769-29.125-69.708-31.18-16.516-1.368-31.014-7.168-46.027-13.949l-2.942-1.328c-23.48-10.956-23.48-10.956-26.937-19.977-1.198-5.3-1.326-11.5.277-16.707.346-3.798-1.514-5.305-3.898-8.176-6.365-8.049-10.771-14.63-10.3-25.195.598-4.382 1.863-8.387 3.284-12.566 1.28-3.982 2.227-7.974 3.141-12.051 1.397-6.16 3.066-12.15 4.996-18.168 1.362-4.519 2.466-9.09 3.522-13.69.74-3.115 1.584-5.853 2.978-8.744 5.32-12.13 4.061-27.848 4.504-40.835.422-12.188.922-24.35 1.938-36.504l.226-2.814c.626-7.042 1.519-13.985 4.399-20.495 5.6-12.66 3.737-32.408-.563-45.25a154.984 154.984 0 0 0-3.688-6.688c-3.545-6.08-4.726-11.344-3.312-18.312 2.073-4.823 5.36-6.676 9.813-9.063 5.7-3.219 10.668-6.779 15.562-11.125 6.658-5.894 13.058-10.654 21.188-14.375 11.756-5.713 21.56-15.434 31.074-24.257a192.274 192.274 0 0 1 6.176-5.43c10.417-9.104 19.611-18.616 26.84-30.457 6.368-10.326 13.07-17.855 23.367-24.367 20.467-13.225 42.004-34.433 47.98-58.926.362-3.576-.14-6.521-1-10l-.463-1.924c-2.048-8.282-4.374-15.382-9.15-22.517-1.705-3.146-2.357-6.133-3.137-9.621-3.406-13.992-12.4-25.824-21.25-36.938l-2.059-2.64c-12.103-15.906-12.103-15.906-29.941-23.36-9-.9-17.308.758-26 3l-3.063.668c-9.606 2.517-15.899 8.68-22.937 15.332l-2.09 1.883c-9.126 8.546-16.14 17.522-17.91 30.117h-2a349.422 349.422 0 0 0-4 5l-3 2v2c-4.63 1.774-8.96 2.396-13.875 2.625l-2.086.117c-1.68.093-3.36.177-5.039.258v2l-5 1v2l-2.035.191c-4.084 1.114-6.987 3.301-10.402 5.746l-2.14 1.503A1218.726 1218.726 0 0 0 1405 716l-3.527 2.496c-4.862 3.45-9.698 6.932-14.504 10.457a4859.524 4859.524 0 0 1-4.344 3.172l-2.21 1.612a399.12 399.12 0 0 1-13.9 9.58l-3.334 2.2c-2.183 1.433-4.37 2.86-6.561 4.278l-3.003 1.967-2.7 1.748L1349 755v2l-7 2v2c-6.893 1.976-14.398 2.389-20.813-1.125-10.944-7.46-20.112-17.75-29.406-27.106-4.108-4.126-8.258-8.097-12.781-11.769l-2.879-2.39c-11.715-9.518-24.547-17.364-40.121-16.61l-2.785.488c-19.322 3.076-34.903-3.796-52.252-11.392-8.052-3.46-16.07-6.102-24.583-8.17-4.267-1.038-8.217-2.22-12.255-3.961-12.346-5.06-26.48-4.747-39.638-5.567-36.21-2.288-36.21-2.288-47.44-13.316-3.223-4.64-3.905-9.52-4.047-15.082-4.333-.928-7.667-.928-12 0v2l-1.644.091c-42.491 3.095-82.073 15.61-120.01 34.443-18.396 9.075-18.396 9.075-27.784 8.841l-3.496-.04c-2.949-.322-4.634-.682-7.066-2.335-4.904-6.948-5.23-14.694-4-23 3.83-7.351 10.254-10.168 17.944-12.62a802.732 802.732 0 0 1 6.119-1.755c6.54-1.857 11.241-4.564 16.617-8.824 5.337-4.143 10.698-5.22 17.32-5.801 2.98-8.012 2.98-8.012 1.813-16.125-11.232-17.536-31.336-26.364-50.122-33.186-13.02-4.734-23.992-10.628-31.566-22.564-15.5-24.042-55.724-43.806-83.125-50.125-11.793-1.912-23.527-2.345-35.458-2.316-2.738.004-5.474-.02-8.212-.045-15.317-.06-28.602 2.768-42.972 8.012ZM559 597c-2.244 1.775-2.244 1.775-2.012 4.094l.324 2.406.301 2.406c.296 2.143.296 2.143 1.387 4.094h2c.838-4.655 1.016-8.37 0-13h-2Zm-422.125 608.125-3.57 3.055-1.736 1.487a222.563 222.563 0 0 1-3.811 3.153c-7.126 5.796-11.09 12.056-12.445 21.243-.6 6.408-1.358 14.781 2.234 20.324L119 1256c5.596-1.27 9.243-3.233 13.688-6.813l1.681-1.29c5.623-4.42 9.601-8.657 10.631-15.897.25-4.546.234-9.074.188-13.625l-.002-3.68c-.035-7.403-.035-7.403-1.186-14.695-2.426 0-5.265 3.528-7.125 5.125ZM158 1202c-4.28 4.28-3.184 10.632-3.188 16.313l-.037 2.802c-.01 5.257.085 9.993 2.225 14.885 2.605 2.382 2.605 2.382 5.875 4.25 6.174 3.926 11.379 8.427 16.664 13.465 2.436 2.383 2.436 2.383 5.461 4.285 4.25-15.56 5.193-26.012-2.938-40.438-4.541-6.084-13.01-12.863-20.062-15.562h-4Zm36 57c-2.656 5.146-2.826 10.527-1.5 16.102.712 2.16.712 2.16 2.5 4.898 2.577 1.052 2.577 1.052 5 1 2.992-4.487 2.715-8.741 2-14-1.232-3.033-2.653-5.693-5-8h-3Zm31 17c-2.718 2.3-3.457 3.847-3.813 7.375-.302 3.725-.094 6.313 1.813 9.625 1.827 2.25 1.827 2.25 4.5 2.25s2.673 0 4.5-2.25c.633-6.121-.254-10.976-4-16l-3-1Z" fill="#060200"/><path d="m1028.792 679.962 3.08.31c3.32.337 6.64.683 9.96 1.029a9463.302 9463.302 0 0 1 21.53 2.234c6.213.65 12.428 1.285 18.644 1.916 4.792.489 9.583.988 14.374 1.49 2.292.239 4.584.474 6.876.705 3.201.323 6.4.662 9.599 1.004l2.857.279c6.46.713 10.964 2.253 16.163 6.321 2.76 3.572 2.456 5.3 2.125 9.75-.971 3.352-.971 3.352-2.352 6.866l-.759 1.959a702.807 702.807 0 0 1-2.514 6.34l-1.759 4.44a1921.547 1921.547 0 0 1-3.712 9.274 1151.99 1151.99 0 0 0-4.686 11.866c-1.199 3.06-2.421 6.11-3.65 9.157a400.819 400.819 0 0 0-1.722 4.375c-5.34 13.758-5.34 13.758-11.797 16.863L1099 777c-1.333.72-2.66 1.45-3.982 2.188-1.375.726-2.753 1.448-4.131 2.167l-2.231 1.175c-2.322 1.222-4.645 2.44-6.969 3.658a6591.627 6591.627 0 0 0-7.021 3.689c-1.448.762-2.897 1.522-4.347 2.28-2.872 1.51-5.617 3.042-8.319 4.843-3.833.76-7.445.86-10.922-1.062-2.936-2.573-4.52-5.033-5.016-8.938.29-2.577.594-3.687 2.537-5.453 6.672-4.216 13.55-7.982 20.526-11.672 2.274-1.21 4.547-2.421 6.82-3.633l3.016-1.598L1082 763l3.564-1.476c5.207-3.022 6.518-8.765 8.46-14.149l1.307-3.452a1253.33 1253.33 0 0 0 4.044-10.923 4475 4475 0 0 1 2.77-7.36 2045.44 2045.44 0 0 0 5.017-13.476l1.006-2.736A63.308 63.308 0 0 0 1110 703l-3.879.11c-7.22-.006-14.363-.83-21.534-1.592-2.577-.273-5.156-.54-7.734-.806-5.473-.565-10.944-1.138-16.416-1.712-6.35-.666-12.7-1.328-19.05-1.983-2.527-.262-5.053-.53-7.579-.797-15.76-1.757-15.76-1.757-30.937 2.061l-2.527 1.01a931.131 931.131 0 0 0-7.907 3.209 1026.402 1026.402 0 0 1-7.917 3.21 324.45 324.45 0 0 0-4.898 2.003c-5.116 2.045-9.107 2.709-14.622 2.287-1.873-1.873-1.236-4.498-1.328-6.992.43-2.636 1.314-3.277 3.328-5.008 2.182-1.223 2.182-1.223 4.727-2.418l2.852-1.352 3.046-1.417 6.273-2.938 3.136-1.465c2.652-1.26 5.27-2.567 7.88-3.91l2.24-1.128a172.169 172.169 0 0 0 4-2.086c8.47-4.2 18.538-2.281 27.638-1.324ZM1212 821c3.24 3.26 5.575 7.121 8 11l2.578 4.047c1.997 3.146 3.977 6.302 5.953 9.46 3.892 6.195 7.896 12.313 11.907 18.43a6513473.379 6513473.379 0 0 1 6.52 9.945 4299.4 4299.4 0 0 1 8.917 13.68l1.594 2.453a8678.39 8678.39 0 0 1 8.685 13.401c.889 1.376 1.775 2.754 2.66 4.133a456.121 456.121 0 0 0 7.76 11.674l1.82 2.691a350.208 350.208 0 0 0 3.543 5.137c3.536 5.264 4.967 8.587 4.063 14.949-1.386 2.913-3.281 4.327-6 6-3.17.844-5.833.875-9 0-2.857-2.521-4.59-5.606-6.5-8.875l-3.57-5.723-1.896-3.11c-3.307-5.352-6.785-10.59-10.249-15.842-1.861-2.828-3.71-5.664-5.558-8.5l-1.889-2.897L1240 901c-3.346 1.255-6.289 2.678-9.293 4.61l-2.395 1.53-2.5 1.61-5.12 3.25a603.38 603.38 0 0 0-7.915 5.125c-3.553 2.285-6.33 3.769-10.465 4.75-5.103-1.348-7.607-4.455-10.312-8.875-1.125-3.5-1.125-3.5 0-7 2.088-1.81 2.088-1.81 4.809-3.719l3.014-2.119A750.59 750.59 0 0 1 1215.187 890l3.174-2.059c2.545-1.65 5.091-3.297 7.639-4.941-.893-4.138-2.864-7.284-5.125-10.813l-1.3-2.053c-4.756-7.488-9.618-14.91-14.484-22.327l-1.868-2.85-1.664-2.532L1200 840l-1.658-2.564c-1.545-2.804-2.073-5.22-1.951-8.432 1.053-3.465 3.416-5.027 6.394-6.906 3.668-1.818 5.218-2.311 9.215-1.098Z"/><path d="m1015.883 683.285 3.782.314c1.445.132 2.89.266 4.335.401l2.394.223c6.59.623 13.177 1.286 19.762 1.957l3.148.32c5.48.558 10.96 1.12 16.438 1.683 4.52.464 9.039.922 13.559 1.373 5.49.549 10.978 1.108 16.465 1.676 2.083.214 4.166.424 6.249.63 2.906.287 5.81.59 8.714.895l2.588.246c6.206.677 10.765 1.826 15.058 6.684L1130 702a1231.314 1231.314 0 0 1-9.421 25.585 533.026 533.026 0 0 0-4.384 11.884c-10.846 30.567-10.846 30.567-24.367 37.246a132.495 132.495 0 0 1-8.378 3.36c-3.339 1.26-6.209 2.925-9.27 4.757l-2.739 1.537a670.141 670.141 0 0 0-5.343 3.04l-2.668 1.486-2.305 1.307c-2.547.956-3.63.816-6.125-.202-2.25-2.063-2.25-2.063-4-4 1.26-3.781 2.289-3.98 5.75-5.785l3.04-1.611 3.21-1.667c3.157-1.653 6.298-3.318 9.41-5.054 2.535-1.39 5.08-2.487 7.774-3.531 9.24-3.952 13.685-8.711 17.77-17.945 2.282-5.709 4.364-11.468 6.353-17.284 1.161-3.348 2.392-6.672 3.615-9.998 4.533-11.908 4.533-11.908 8.078-24.125-11.057-1.87-22.158-3.05-33.309-4.2l-5.82-.603c-4.04-.419-8.08-.834-12.12-1.248-5.17-.53-10.34-1.071-15.51-1.614-3.995-.418-7.99-.83-11.986-1.238a2061.59 2061.59 0 0 1-5.72-.597c-2.66-.28-5.321-.551-7.982-.82l-2.366-.255c-5.936-.582-10.877-.108-16.416 2.065l-2.346.91-2.472.979-2.583 1.005a2700.33 2700.33 0 0 0-8.12 3.178c-2.72 1.066-5.44 2.13-8.163 3.19-1.69.659-3.38 1.32-5.068 1.987C970.224 706 970.224 706 968 706c1.445-3.747 3.024-4.856 6.629-6.516l2.861-1.342 3.072-1.392 6.313-2.906 3.156-1.446a168.153 168.153 0 0 0 7.781-3.93l2.198-1.143a111.867 111.867 0 0 0 3.88-2.127c4.124-2.099 7.401-2.297 11.993-1.913ZM1208 825c2.935 2.766 5.15 5.535 7.293 8.945l1.884 2.974 2.01 3.206c1.437 2.268 2.874 4.535 4.313 6.8l1.12 1.767c3.963 6.245 8.01 12.435 12.068 18.62l4.269 6.516 2.065 3.15a6142.716 6142.716 0 0 1 17.767 27.33l1.365 2.109a1514.33 1514.33 0 0 1 2.655 4.123 527.94 527.94 0 0 0 7.836 11.823l1.847 2.746c1.194 1.774 2.4 3.538 3.621 5.293l1.625 2.43 1.47 2.148c.792 2.02.792 2.02.023 4.171-1.278 1.92-2.428 3.407-4.231 4.849h-3c-1.264-1.423-1.264-1.423-2.54-3.46l-1.484-2.333-1.601-2.582a5799.479 5799.479 0 0 0-3.465-5.465l-1.886-2.988a734.963 734.963 0 0 0-6.59-10.113l-1.164-1.763c-1.53-2.317-3.059-4.633-4.595-6.946a1489.63 1489.63 0 0 1-3.218-4.877l-1.876-2.836c-1.495-2.494-2.59-4.909-3.581-7.637l-2.18 1.342L1203 917c-5.875-4.625-5.875-4.625-7-8l37-25c-1.353-3.383-2.406-5.872-4.293-8.836l-1.389-2.193-1.505-2.346-1.57-2.467c-5.026-7.873-10.132-15.693-15.253-23.503l-1.838-2.803-1.625-2.475L1204 837l-1.76-2.616L1201 832c1.333-4 3.496-4.838 7-7Z" fill="#D6BB49"/><path d="M1375.438 999.188c3.818.87 4.1.943 6.062 4a196.8 196.8 0 0 1 2.5 4.812c.945 1.738 1.89 3.476 2.84 5.212A754.205 754.205 0 0 1 1391 1021l1.496-2.809 1.941-3.629.987-1.853c2.463-4.596 2.463-4.596 3.576-5.709 6.121-.453 6.121-.453 8.938 1 1.74 3.275 1.577 6.424 1.062 10-1.8 5.211-4.207 10.163-6.533 15.156-4.222 9.485-3.314 14.417-.405 24.344 1.472 5.304 2.769 9.996 1.938 15.5-1.563 2.5-1.563 2.5-4 4-3.563.563-3.563.563-7 0-2.404-3.337-3.88-6.929-5.36-10.749l-1.334-3.43-1.411-3.68-.728-1.891a3409.25 3409.25 0 0 1-3.793-9.913 1632.909 1632.909 0 0 0-3.924-10.17c-1.017-2.623-2.02-5.252-3.019-7.881a766.403 766.403 0 0 0-2.154-5.552c-2.463-6.542-3.989-11.733-3.277-18.734 2.026-3.972 3.093-4.786 7.438-5.813ZM1079 905c2.434 1.469 2.434 1.469 4.438 3.5l2.058 1.969c1.695 2.852 2.265 5.179 2.099 8.51-1.214 4.125-4.812 6.08-8.22 8.396l-2.352 1.694A541.405 541.405 0 0 1 1070 934a848.633 848.633 0 0 0-3.578 2.566 878.114 878.114 0 0 1-6.656 4.746c-4.673 3.317-9.28 6.723-13.891 10.125l-2.48 1.83c-4.265 3.131-4.265 3.131-8.437 6.382-3.16 2.181-5.228 1.994-8.958 1.351-3.854-2.86-5.718-5.872-6.875-10.5 1.335-5.34 4.586-7.27 8.875-10.5a776.33 776.33 0 0 0 3.156-2.5c3.597-2.857 7.22-5.679 10.844-8.5a3158.26 3158.26 0 0 0 5.163-4.035c1.142-.894 2.285-1.785 3.43-2.674a263.621 263.621 0 0 0 9.598-7.873l2.143-1.817a252.552 252.552 0 0 0 4.074-3.538c4.19-3.54 6.89-5.067 12.592-4.063Z"/><path d="M1103 938c2.61 2.778 2.966 4.73 3.438 8.5-.52 4.16-1.757 5.36-4.438 8.5l-1 3.813c-2.034 5.768-7.164 8.02-12.166 11.045-3.36 2.092-6.585 4.382-9.834 6.642-1.363.934-2.726 1.868-4.09 2.8a360.621 360.621 0 0 0-7.351 5.18l-3.121 2.207-2.692 1.95c-3.493 1.734-5.891 1.778-9.746 1.363-2.768-1.43-4.37-3.364-6-6-1.328-4.764-1.328-4.764 0-8 2.693-3.014 5.826-5.307 9.108-7.648 2.07-1.479 4.11-2.99 6.15-4.508 3.186-2.368 6.387-4.712 9.597-7.047a386.979 386.979 0 0 0 10.57-8.031l2.698-2.096a406.102 406.102 0 0 0 5.115-4.047c4.626-3.577 7.652-5.713 13.762-4.623Z" fill="#010000"/><path d="M965.563 778.25c3.845.839 5.705 1.801 8.223 4.786 2.167 3.506 2.098 7.005 1.214 10.964-1.862 2.709-4.207 4.526-6.813 6.5l-2.08 1.683A453.398 453.398 0 0 1 960 807a1381.607 1381.607 0 0 0-5.563 4.563l-2.613 2.117c-4.549 3.737-9.003 7.584-13.465 11.425l-1.662 1.423a192.634 192.634 0 0 0-3.53 3.143l-1.831 1.645-1.64 1.503c-2.017 1.404-3.378 1.744-5.821 1.931C920 834 920 834 917 831.437c-2.368-4.07-2.668-5.798-2-10.437 1.83-2.565 4.095-4.482 6.5-6.5l1.952-1.72A480.02 480.02 0 0 1 929 808c1.418-1.249 2.835-2.498 4.25-3.75l1.828-1.578c2.333-2.03 4.627-4.1 6.922-6.172 3.682-3.32 7.372-6.628 11.133-9.86a93.544 93.544 0 0 0 3.672-3.406c2.981-2.835 4.643-4.118 8.758-4.984ZM985.25 801.625c3.662.053 4.64.3 7.813 2.438 2.486 3.77 2.618 5.481 1.937 9.937-2.027 2.542-4.513 4.339-7.125 6.25l-2.203 1.697c-1.496 1.151-3 2.293-4.509 3.426-3.093 2.327-6.126 4.728-9.163 7.127l-1.683 1.315c-5.423 4.237-10.755 8.583-16.077 12.947l-1.94 1.586-1.713 1.406c-2.815 2.21-4.416 3.224-8.024 3.683-3.563-.437-3.563-.437-6-2.5-1.96-3.684-2.018-5.802-1.563-9.937 2.02-2.555 2.02-2.555 4.813-4.875l1.508-1.281A280.572 280.572 0 0 1 946 831l2.723-2.254a730.43 730.43 0 0 1 5.39-4.394c3.187-2.596 6.32-5.25 9.45-7.914 4.799-4.084 9.664-8.07 14.609-11.977 2.75-2.198 3.45-2.68 7.078-2.836ZM1344.238 1041.414l2.074.211 3.688.375c2.758 4.597 3.948 8.683 3 14-1.644 2.4-3.005 4.036-5.063 6a5265.91 5265.91 0 0 0-3.292 3.348l-1.783 1.774c-3.33 3.359-6.52 6.849-9.737 10.315-2.363 2.533-4.74 5.052-7.125 7.563l-1.65 1.783c-3.94 4.146-3.94 4.146-7.975 4.842-3.375-.625-3.375-.625-5.813-2.063-1.948-3.196-2.432-5.406-2.273-9.132 1.472-5.03 5.927-8.043 9.711-11.43a123.184 123.184 0 0 0 3.313-3.75c3.665-4.275 7.492-8.392 11.337-12.507l1.483-1.595 1.459-1.565c1.42-1.597 2.705-3.263 4.006-4.958 2.402-2.625 2.402-2.625 4.64-3.21ZM1362 1067c2.03 4.189 2.508 7.365 2 12-1.558 2.924-3.583 5.388-5.688 7.938l-1.757 2.21A750.49 750.49 0 0 1 1351 1096a4407.302 4407.302 0 0 0-3.617 4.488 980.389 980.389 0 0 1-8.059 9.875c-1.198 1.482-2.328 3.018-3.449 4.559-1.875 2.078-1.875 2.078-5.813 2.578-3.707-.27-6.317-.84-9.062-3.5-.414-3.85-.478-6.189 1.512-9.563l2.176-2.437 2.48-2.844 1.373-1.527c2.125-2.373 4.203-4.786 6.287-7.196 1.114-1.288 2.23-2.574 3.35-3.858a468.212 468.212 0 0 0 12.017-14.403c3.977-4.786 5.312-5.54 11.805-5.172Z"/><path d="M1075 909a197.99 197.99 0 0 1 3.5 2.75l1.969 1.547C1082 915 1082 915 1082 919c-1.91 1.664-3.708 2.996-5.813 4.375-1.295.886-2.59 1.774-3.882 2.664l-2.115 1.442c-3.854 2.672-7.61 5.476-11.378 8.269l-4.812 3.555-2.46 1.819c-4.406 3.255-8.817 6.503-13.227 9.751l-4.825 3.555L1030 957c-2.5-2.313-2.5-2.313-5-5v-3a108.64 108.64 0 0 1 6.938-5.875l2.181-1.739c5.741-4.552 11.572-8.987 17.414-13.41 8.011-6.093 15.745-12.522 23.467-18.976ZM1375 1004c2.839 2.486 4.26 5.175 5.918 8.543l1.611 3.252 1.659 3.393 1.693 3.427A2460.06 2460.06 0 0 1 1390 1031c2.324-2.82 4.45-5.528 6.14-8.77l1.055-2.001 1.055-2.042 1.102-2.1c.887-1.693 1.768-3.39 2.648-5.087l3 2c-1.459 4.7-3.053 9.266-5.078 13.754l-1.078 2.4a376.188 376.188 0 0 1-2.235 4.828c-4.269 9.629-1.046 17.68 1.838 27.303l.69 2.45.647 2.194c.27 2.597-.448 3.874-1.784 6.071h-3c-2.856-7.605-5.707-15.21-8.554-22.819a8595.583 8595.583 0 0 0-3.971-10.596c-1.28-3.41-2.558-6.82-3.832-10.232-.486-1.3-.974-2.599-1.463-3.898-.686-1.822-1.366-3.647-2.047-5.471l-1.178-3.143c-.887-2.637-1.618-5.078-1.955-7.841 1.438-2.313 1.438-2.313 3-4ZM1099 942l3 4-2.93 4.004c-1.267 2.14-1.267 2.14-1.789 5.414-1.605 4.486-3.976 6.013-7.906 8.332-1.36.853-2.72 1.707-4.078 2.563l-2.139 1.324c-3.584 2.264-7.053 4.692-10.533 7.113-5.507 3.804-11.035 7.57-16.625 11.25l-6-5c1.372-3.224 2.77-4.867 5.613-6.89l2.253-1.628 2.447-1.732a3253.89 3253.89 0 0 0 5.16-3.73l2.73-1.975c5.629-4.116 11.146-8.38 16.677-12.626 4.65-3.561 9.331-7.047 14.12-10.419ZM965 783l6 5c-.257 3.247-1.167 4.162-3.555 6.48a254.843 254.843 0 0 1-3.32 2.707l-1.781 1.468A814.677 814.677 0 0 1 957 803l-5.438 4.438-2.667 2.171c-5.124 4.232-10.15 8.577-15.182 12.916-2.9 2.497-5.807 4.986-8.713 7.475-3.367-1.52-4.608-2.521-6-6 12.93-12.004 12.93-12.004 19.043-17.293A544.096 544.096 0 0 0 945 800.5c6.58-5.935 13.262-11.745 20-17.5ZM984 806c1.875.188 1.875.188 4 1a82.34 82.34 0 0 1 3 4l-2.5 1.95A1189.525 1189.525 0 0 0 969 828.5a1370.68 1370.68 0 0 1-15.688 12.625c-.563.45-1.127.898-1.708 1.361-3.08 2.425-6.195 4.579-9.604 6.514l-3-5a384.271 384.271 0 0 1 18.078-15.613c3.196-2.61 6.343-5.274 9.485-7.95 4.799-4.083 9.664-8.068 14.609-11.976 1.736-1.332 1.736-1.332 2.828-2.461ZM1345 1046h2c1.309 3.129 1.309 3.129 2 7-1.582 2.466-2.852 3.977-4.938 5.938a3732.59 3732.59 0 0 0-3.347 3.37l-1.821 1.793c-3.36 3.369-6.547 6.9-9.769 10.399-4.156 4.512-8.32 8.68-13.125 12.5-1.563-1.25-1.563-1.25-3-3 .359-3.664 2.001-5.299 4.625-7.75 2.663-2.564 5.217-5.132 7.625-7.938 3.716-4.325 7.593-8.493 11.487-12.656 2.287-2.458 4.444-4.89 6.501-7.55L1345 1046ZM1358 1071c1.188 1.688 1.188 1.688 2 4-1.917 4.228-5.052 7.759-7.938 11.375l-1.437 1.816a3010.56 3010.56 0 0 1-12.652 15.834c-2.374 2.957-4.724 5.92-6.973 8.975l-6-2c2.47-4.527 5.602-8.166 9-12 1.169-1.333 2.337-2.666 3.504-4l1.774-2.023a711.428 711.428 0 0 0 7.66-8.977c3.668-4.35 7.35-8.687 11.062-13Z" fill="#D6BB49"/><path d="m1485 651 2 1a2695.918 2695.918 0 0 1-3.313 3.813l-1.863 2.144c-3.273 3.666-3.273 3.666-4.824 5.043h-2l-2 4-2-1c1.77-1.938 3.541-3.876 5.313-5.813l1.513-1.658c2.343-2.56 4.685-5.108 7.174-7.529Z" fill="#854419"/><path d="m277 935 2 1v2h2l-1 3v-2c-2.445.188-2.445.188-5 1-1.125 1.833-1.125 1.833-2 4a89.782 89.782 0 0 1-4 4l-2-1 1.934-2.117 2.503-2.758 2.497-2.742c2.075-2.194 2.075-2.194 3.066-4.383Z" fill="#723A14"/><path d="M570 608h1c.054 1.437.093 2.875.125 4.313l.07 2.425C571 617 571 617 569 620l-5-2 1.875-.5c3.403-2.402 3.351-5.502 4.125-9.5Z" fill="#4E250A"/><path d="m648 534 2 1a367.08 367.08 0 0 1-2.813 3.438l-1.582 1.933C644 542 644 542 641 543l1-3h2v-2h2l2-4Z" fill="#8B481A"/><path d="M484 818h8v1l-2.75.875c-2.572.89-4.863 1.84-7.25 3.125l2-5Z" fill="#6C3612"/></svg>